<svg width="312" height="321" viewBox="0 0 312 321" fill="none" xmlns="http://www.w3.org/2000/svg">
<path d="M77.5076 86.0869V4.58707C77.5076 2.05626 79.5638 -1.52588e-05 82.0947 -1.52588e-05C84.6255 -1.52588e-05 86.6817 2.05626 86.6817 4.58707V86.0869H77.5076Z" fill="url(#paint0_linear_24644_2973)"/>
<path opacity="0.4" d="M84.8231 86.0869V0.711777L86.6817 2.49125V86.0869H84.8231Z" fill="url(#paint1_linear_24644_2973)"/>
<path d="M91.506 94.1934L77.5865 86.0869V54.096L91.506 45.9895V94.1934Z" fill="url(#paint2_linear_24644_2973)"/>
<path d="M235.525 86.0869V4.58707C235.525 2.05626 233.468 -1.52588e-05 230.938 -1.52588e-05C228.407 -1.52588e-05 226.35 2.05626 226.35 4.58707V86.0869H235.525Z" fill="url(#paint3_linear_24644_2973)"/>
<path opacity="0.4" d="M233.627 86.0869V0.711777L235.485 2.49125V86.0869H233.627Z" fill="url(#paint4_linear_24644_2973)"/>
<path d="M221.526 94.1934L235.485 86.0869V54.096L221.526 45.9895V94.1934Z" fill="url(#paint5_linear_24644_2973)"/>
<path d="M156.753 140.222C195.475 140.222 226.865 108.833 226.865 70.1112C226.865 31.3898 195.475 -1.52588e-05 156.753 -1.52588e-05C118.032 -1.52588e-05 86.6422 31.3898 86.6422 70.1112C86.6422 108.833 118.032 140.222 156.753 140.222Z" fill="url(#paint6_radial_24644_2973)"/>
<path d="M156.753 108.666C189.119 108.666 215.357 91.4047 215.357 70.1112C215.357 48.8177 189.119 31.556 156.753 31.556C124.387 31.556 98.1494 48.8177 98.1494 70.1112C98.1494 91.4047 124.387 108.666 156.753 108.666Z" fill="url(#paint7_radial_24644_2973)"/>
<path opacity="0.8" d="M212.906 56.0336C217.058 67.7781 184.513 63.1515 156.753 63.1515C127.372 63.1515 111.673 75.5287 100.957 85.4147C100.957 85.4147 94.7091 70.1112 100.403 56.0336C108.352 36.4198 128.994 31.556 156.753 31.556C184.513 31.556 206.539 38.0016 212.906 56.0336Z" fill="url(#paint8_linear_24644_2973)"/>
<path opacity="0.8" d="M182.259 91.9789C197.088 91.9789 205.59 90.6344 211.759 83.8725C211.759 83.8725 208.793 89.1713 204.957 92.9675C200.963 96.9219 195.23 101.469 182.141 102.26C168.182 103.091 168.261 91.9789 182.259 91.9789Z" fill="url(#paint9_linear_24644_2973)"/>
<path d="M215.516 70.1112C215.516 73.4329 215.199 76.7941 214.487 80.0367C213.776 83.2793 212.589 86.4824 210.928 89.3691C209.228 92.2558 207.053 94.9052 204.522 97.1592C204.364 97.3174 204.206 97.436 204.048 97.5942L203.573 97.9896L202.585 98.7805C201.912 99.2945 201.201 99.7691 200.528 100.244C199.817 100.679 199.105 101.153 198.353 101.549C197.602 101.944 196.89 102.379 196.1 102.735C193.055 104.238 189.891 105.424 186.649 106.333C185.027 106.808 183.406 107.203 181.745 107.559C180.084 107.915 178.423 108.192 176.802 108.429C173.48 108.943 170.159 109.26 166.798 109.418C163.476 109.615 160.115 109.655 156.753 109.655C153.432 109.615 150.07 109.457 146.749 109.22C143.427 108.943 140.105 108.587 136.784 108.073C133.502 107.52 130.219 106.847 126.977 105.898C123.774 104.989 120.61 103.842 117.565 102.419C116.814 102.063 116.063 101.667 115.311 101.272C114.56 100.876 113.848 100.441 113.137 100.006C112.425 99.5318 111.753 99.0968 111.041 98.5828L110.052 97.8314L109.538 97.436C109.38 97.3174 109.222 97.1592 109.064 97.0406C106.493 94.8656 104.239 92.2953 102.499 89.4481C102.064 88.7363 101.669 87.985 101.273 87.2337C100.918 86.4824 100.562 85.6915 100.245 84.9401L99.8103 83.7538C99.6521 83.3584 99.4939 82.9629 99.3753 82.5675L99.0194 81.3416C98.9008 80.9462 98.7821 80.5508 98.7031 80.1158C97.8726 76.8337 97.5167 73.4724 97.4772 70.1112C97.4376 66.75 97.7145 63.3492 98.4262 60.0275C99.138 56.7058 100.324 53.4633 102.064 50.4975C103.804 47.5317 106.058 44.8822 108.668 42.6678C111.278 40.4138 114.204 38.6343 117.289 37.1712C123.457 34.245 130.101 32.6237 136.705 31.5955C140.026 31.0814 143.388 30.7651 146.709 30.5674C150.07 30.3697 153.392 30.251 156.753 30.2906C160.115 30.3301 163.436 30.4092 166.798 30.6465C170.159 30.8837 173.48 31.2001 176.802 31.7141C178.463 31.991 180.124 32.2678 181.745 32.6237C183.406 32.9796 185.027 33.375 186.649 33.8495C189.891 34.759 193.055 35.9849 196.1 37.4875C196.851 37.8434 197.602 38.2784 198.353 38.6739C199.105 39.1088 199.777 39.5438 200.528 39.9788C201.201 40.4533 201.912 40.9279 202.585 41.4419L203.573 42.2328L204.048 42.6282C204.206 42.7469 204.364 42.905 204.522 43.0632C207.053 45.3172 209.228 47.9271 210.928 50.8534C212.629 53.7796 213.776 56.9431 214.487 60.1857C215.199 63.4283 215.516 66.7895 215.516 70.1112ZM215.278 70.1112C215.239 66.7895 214.922 63.4678 214.131 60.2648C214.052 59.8694 213.934 59.4739 213.815 59.0785L213.459 57.8922C213.341 57.4967 213.182 57.1013 213.064 56.7058L212.629 55.5591C212.312 54.8077 211.957 54.0564 211.601 53.3051C211.205 52.5933 210.81 51.8815 210.375 51.1697C208.635 48.4016 206.381 45.9499 203.85 43.8936C203.692 43.775 203.534 43.6168 203.376 43.4982L202.861 43.1423L201.873 42.4305C201.201 41.956 200.489 41.5606 199.817 41.1256C199.105 40.7301 198.393 40.3347 197.681 39.9393C196.93 39.5834 196.218 39.1879 195.467 38.9111C189.456 36.3012 183.01 34.8777 176.525 34.0077C170.001 33.1377 163.397 32.8609 156.832 32.8609C150.229 32.8609 143.625 33.2168 137.14 34.0868C130.654 34.9963 124.209 36.499 118.317 39.2275C117.565 39.5438 116.854 39.9393 116.142 40.2952C115.43 40.6906 114.758 41.086 114.046 41.4815C113.374 41.9165 112.702 42.3514 112.029 42.826L111.08 43.5377L110.606 43.8936C110.448 44.0123 110.289 44.1705 110.131 44.2891C107.64 46.3454 105.505 48.7575 103.804 51.4861C103.369 52.1583 103.013 52.8701 102.618 53.5819C102.302 54.3332 101.906 55.045 101.629 55.7963L101.194 56.9431C101.036 57.3385 100.878 57.6944 100.799 58.0899L100.443 59.2366C100.324 59.6321 100.206 60.0275 100.127 60.423C99.3358 63.5865 98.9799 66.8291 98.9008 70.1112C98.8612 73.3933 99.138 76.6755 99.8103 79.8785C100.522 83.0816 101.629 86.2055 103.33 89.0132C104.991 91.8208 107.165 94.3516 109.696 96.4869C112.187 98.6223 115.035 100.323 118.04 101.707C121.045 103.091 124.169 104.119 127.372 104.949C130.575 105.74 133.818 106.333 137.1 106.729C143.664 107.559 150.268 107.757 156.872 107.678C163.476 107.599 170.08 107.243 176.604 106.373C178.226 106.136 179.847 105.898 181.468 105.582C183.09 105.266 184.671 104.949 186.253 104.554C189.417 103.723 192.541 102.735 195.546 101.43C196.297 101.114 197.009 100.718 197.76 100.362C198.472 100.006 199.184 99.5714 199.896 99.1759C200.568 98.7409 201.28 98.306 201.952 97.8314L202.941 97.1196L203.455 96.7637C203.613 96.6451 203.771 96.4869 203.929 96.3683C206.46 94.312 208.714 91.8603 210.454 89.0922C210.889 88.3805 211.284 87.6687 211.68 86.9569C212.036 86.2055 212.392 85.4542 212.708 84.7029L213.143 83.5561C213.301 83.1607 213.459 82.8048 213.538 82.3698L213.894 81.1835C214.013 80.788 214.131 80.3926 214.211 79.9972C214.922 76.715 215.239 73.3933 215.278 70.1112Z" fill="url(#paint10_linear_24644_2973)"/>
<path d="M138.761 61.8465C138.761 64.1005 136.942 65.88 134.727 65.88H120.966C118.712 65.88 116.933 64.061 116.933 61.8465C116.933 59.5925 118.752 57.8131 120.966 57.8131H134.727C136.942 57.8131 138.761 59.6321 138.761 61.8465Z" fill="#1BF4F6"/>
<path d="M174.746 61.8465C174.746 59.5925 176.565 57.8131 178.779 57.8131H192.58C194.795 57.8131 196.614 59.6321 196.614 61.8465C196.614 64.061 194.795 65.88 192.58 65.88H178.819C176.565 65.9196 174.746 64.1005 174.746 61.8465Z" fill="#1BF4F6"/>
<path d="M145.839 91.1485C145.839 88.8945 147.658 87.1151 149.873 87.1151H163.634C165.849 87.1151 167.668 88.9341 167.668 91.1485C167.668 93.363 165.849 95.182 163.634 95.182H149.873C147.619 95.2215 145.839 93.4025 145.839 91.1485Z" fill="#1BF4F6"/>
<path d="M155.804 233.071C162.329 233.071 168.854 233.902 175.102 235.918C178.186 236.986 181.271 238.291 183.96 240.347C185.264 241.376 186.53 242.562 187.518 244.025C187.993 244.737 188.388 245.567 188.705 246.398C188.982 247.268 189.179 248.138 189.219 249.087C189.219 249.996 189.14 250.945 188.902 251.815C188.665 252.685 188.309 253.555 187.874 254.346C186.965 255.928 185.779 257.272 184.474 258.419C183.169 259.566 181.706 260.554 180.242 261.385C178.74 262.215 177.198 262.966 175.616 263.599C169.289 266.051 162.527 267.079 155.804 267.079C149.082 267.079 142.32 266.051 135.993 263.599C134.411 262.966 132.869 262.255 131.366 261.385C129.864 260.515 128.44 259.566 127.135 258.419C125.83 257.272 124.644 255.928 123.734 254.346C123.299 253.555 122.943 252.685 122.706 251.815C122.469 250.906 122.39 249.996 122.39 249.087C122.429 248.177 122.627 247.268 122.904 246.398C123.22 245.567 123.616 244.737 124.09 244.025C125.079 242.562 126.305 241.376 127.649 240.347C130.338 238.331 133.383 236.986 136.507 235.918C142.755 233.902 149.319 233.111 155.804 233.071ZM155.804 233.071C149.28 233.071 142.715 234.099 136.665 236.433C135.162 237.026 133.699 237.738 132.315 238.528C130.931 239.319 129.587 240.229 128.4 241.296C127.214 242.364 126.186 243.55 125.435 244.855C125.079 245.528 124.802 246.2 124.604 246.912C124.446 247.623 124.367 248.335 124.367 249.047C124.407 249.759 124.565 250.471 124.802 251.143C125.079 251.815 125.395 252.448 125.791 253.041C126.621 254.227 127.728 255.295 128.915 256.204C131.327 258.023 134.213 259.289 137.179 260.277C143.111 262.215 149.477 263.006 155.804 263.006C162.131 263.006 168.458 262.215 174.429 260.277C177.395 259.289 180.282 258.023 182.694 256.204C183.88 255.295 184.988 254.267 185.818 253.041C186.214 252.448 186.53 251.815 186.807 251.143C187.044 250.471 187.163 249.759 187.242 249.047C187.242 248.335 187.202 247.623 187.004 246.912C186.807 246.2 186.53 245.528 186.174 244.855C185.423 243.511 184.394 242.325 183.208 241.296C182.022 240.268 180.677 239.359 179.293 238.528C177.909 237.738 176.446 237.026 174.944 236.433C168.893 234.099 162.329 233.111 155.804 233.071Z" fill="url(#paint11_linear_24644_2973)"/>
<g opacity="0.8">
<path d="M155.804 251.064C161.499 251.064 167.233 251.776 172.69 253.555C175.418 254.465 178.068 255.651 180.44 257.43C181.587 258.34 182.694 259.368 183.564 260.633C183.999 261.266 184.355 261.978 184.592 262.69C184.83 263.441 184.988 264.232 185.027 265.023C185.027 265.814 184.948 266.644 184.751 267.395C184.513 268.147 184.236 268.898 183.841 269.61C183.05 270.994 182.022 272.18 180.875 273.169C179.728 274.157 178.463 275.027 177.158 275.779C175.853 276.53 174.509 277.163 173.125 277.716C167.588 279.891 161.657 280.761 155.804 280.761C149.952 280.761 144.02 279.852 138.484 277.716C137.1 277.163 135.756 276.53 134.451 275.779C133.146 275.027 131.88 274.197 130.734 273.169C129.587 272.141 128.559 270.994 127.768 269.61C127.372 268.938 127.096 268.186 126.858 267.395C126.661 266.605 126.582 265.814 126.582 264.983C126.621 264.192 126.779 263.401 127.017 262.65C127.293 261.899 127.649 261.227 128.045 260.594C128.915 259.328 129.982 258.3 131.169 257.391C133.502 255.611 136.191 254.425 138.919 253.516C144.376 251.776 150.11 251.103 155.804 251.064ZM155.804 251.064C150.11 251.064 144.376 251.934 139.077 254.03C136.468 255.097 133.937 256.442 131.841 258.261C130.813 259.17 129.903 260.238 129.271 261.385C128.954 261.978 128.717 262.571 128.559 263.204C128.401 263.836 128.361 264.469 128.361 265.062C128.401 265.695 128.519 266.288 128.717 266.881C128.954 267.474 129.231 268.028 129.587 268.542C130.299 269.61 131.248 270.519 132.315 271.31C134.451 272.892 136.942 274.039 139.552 274.909C144.772 276.609 150.308 277.281 155.844 277.321C161.38 277.321 166.916 276.649 172.136 274.948C174.706 274.078 177.237 272.971 179.373 271.35C180.401 270.559 181.389 269.649 182.101 268.582C182.457 268.068 182.734 267.474 182.971 266.921C183.169 266.328 183.287 265.735 183.327 265.102C183.327 264.469 183.287 263.836 183.129 263.243C182.971 262.611 182.734 262.017 182.378 261.424C181.745 260.277 180.836 259.21 179.808 258.3C177.712 256.481 175.181 255.097 172.571 254.069C167.272 251.973 161.499 251.103 155.804 251.064Z" fill="url(#paint12_linear_24644_2973)"/>
</g>
<g opacity="0.6">
<path d="M155.804 267.079C160.708 267.079 165.611 267.672 170.277 269.214C172.611 270.005 174.904 270.994 176.921 272.536C177.909 273.327 178.858 274.197 179.57 275.304C179.926 275.858 180.243 276.451 180.48 277.084C180.678 277.716 180.836 278.389 180.875 279.1C180.875 279.773 180.796 280.484 180.638 281.157C180.44 281.829 180.203 282.462 179.847 283.055C179.175 284.241 178.265 285.23 177.316 286.1C175.339 287.8 173.046 289.026 170.673 289.975C165.928 291.833 160.866 292.585 155.804 292.585C150.782 292.585 145.721 291.833 140.936 289.975C138.563 289.026 136.27 287.8 134.293 286.1C133.304 285.23 132.394 284.241 131.762 283.055C131.445 282.462 131.169 281.829 130.971 281.157C130.813 280.484 130.734 279.812 130.734 279.1C130.773 278.428 130.892 277.716 131.129 277.084C131.366 276.451 131.643 275.858 132.039 275.304C132.75 274.197 133.699 273.327 134.688 272.536C136.705 270.994 138.998 270.005 141.331 269.214C146.037 267.672 150.941 267.079 155.804 267.079ZM155.804 267.079C150.941 267.079 145.998 267.83 141.45 269.61C139.196 270.519 137.021 271.666 135.242 273.248C134.372 274.039 133.581 274.948 133.027 275.937C132.75 276.451 132.553 276.965 132.394 277.479C132.276 277.993 132.197 278.547 132.236 279.1C132.276 279.654 132.394 280.168 132.553 280.682C132.75 281.196 132.988 281.671 133.304 282.106C133.897 283.015 134.728 283.767 135.637 284.478C137.456 285.862 139.631 286.811 141.845 287.563C146.314 289.026 151.059 289.619 155.804 289.619C160.55 289.619 165.295 289.026 169.763 287.563C171.978 286.811 174.153 285.862 175.972 284.478C176.881 283.806 177.712 283.015 178.305 282.106C178.621 281.671 178.858 281.157 179.056 280.682C179.214 280.168 179.333 279.654 179.373 279.1C179.373 278.547 179.333 278.033 179.214 277.479C179.056 276.965 178.858 276.411 178.582 275.937C178.028 274.948 177.237 274.039 176.367 273.248C174.588 271.706 172.413 270.519 170.159 269.61C165.611 267.83 160.708 267.079 155.804 267.079Z" fill="url(#paint13_linear_24644_2973)"/>
</g>
<g opacity="0.4">
<path d="M155.804 281.078C159.877 281.078 163.95 281.592 167.865 282.857C169.803 283.529 171.701 284.36 173.401 285.625C174.232 286.258 175.023 287.009 175.616 287.919C175.932 288.354 176.169 288.868 176.367 289.382C176.565 289.935 176.644 290.489 176.683 291.043C176.683 291.596 176.644 292.189 176.486 292.743C176.328 293.297 176.13 293.811 175.853 294.325C175.299 295.313 174.548 296.144 173.718 296.856C172.057 298.279 170.159 299.307 168.182 300.098C164.227 301.64 159.996 302.273 155.804 302.273C151.613 302.273 147.381 301.64 143.427 300.098C141.45 299.307 139.552 298.279 137.891 296.856C137.061 296.144 136.309 295.274 135.756 294.325C135.479 293.85 135.281 293.297 135.123 292.743C134.965 292.189 134.925 291.596 134.925 291.043C134.965 290.449 135.044 289.896 135.242 289.382C135.439 288.868 135.676 288.354 135.993 287.919C136.586 287.009 137.377 286.258 138.207 285.625C139.868 284.36 141.806 283.529 143.743 282.857C147.658 281.592 151.731 281.078 155.804 281.078ZM155.804 281.078C151.731 281.078 147.619 281.71 143.862 283.173C142.004 283.925 140.185 284.913 138.682 286.218C137.931 286.89 137.298 287.602 136.823 288.433C136.586 288.828 136.428 289.263 136.309 289.738C136.191 290.173 136.151 290.647 136.151 291.082C136.191 291.517 136.27 291.952 136.428 292.387C136.586 292.822 136.784 293.217 137.061 293.573C137.575 294.325 138.247 294.957 138.998 295.551C140.501 296.697 142.32 297.488 144.178 298.121C147.896 299.347 151.85 299.821 155.804 299.821C159.759 299.821 163.713 299.347 167.43 298.121C169.289 297.488 171.068 296.697 172.61 295.551C173.362 294.957 174.034 294.325 174.548 293.573C174.825 293.217 175.023 292.783 175.181 292.387C175.339 291.952 175.418 291.517 175.458 291.082C175.458 290.647 175.418 290.173 175.299 289.738C175.181 289.303 175.023 288.868 174.785 288.433C174.311 287.602 173.678 286.851 172.927 286.218C171.424 284.913 169.645 283.925 167.747 283.173C163.99 281.71 159.877 281.078 155.804 281.078Z" fill="url(#paint14_linear_24644_2973)"/>
</g>
<g opacity="0.2">
<path d="M155.804 293.059C157.426 293.059 159.047 293.178 160.668 293.376C162.29 293.613 163.911 293.929 165.453 294.483C166.995 294.997 168.537 295.669 169.882 296.697C170.554 297.211 171.187 297.805 171.661 298.516C171.899 298.872 172.096 299.268 172.255 299.703C172.413 300.138 172.492 300.573 172.492 301.047C172.492 301.522 172.452 301.957 172.334 302.431C172.215 302.866 172.017 303.301 171.82 303.697C171.385 304.488 170.791 305.16 170.119 305.753C168.775 306.9 167.272 307.73 165.69 308.323C162.527 309.549 159.126 310.063 155.804 310.063C152.443 310.063 149.082 309.549 145.918 308.323C144.337 307.691 142.794 306.86 141.489 305.753C140.817 305.16 140.224 304.488 139.789 303.697C139.552 303.301 139.394 302.866 139.275 302.431C139.156 301.996 139.117 301.522 139.117 301.047C139.156 300.573 139.235 300.138 139.354 299.703C139.512 299.268 139.71 298.872 139.947 298.516C140.422 297.805 141.054 297.211 141.727 296.697C143.071 295.669 144.613 294.997 146.156 294.483C147.698 293.969 149.319 293.613 150.94 293.376C152.562 293.178 154.183 293.059 155.804 293.059ZM155.804 293.059C152.562 293.059 149.28 293.573 146.235 294.76C144.732 295.353 143.308 296.144 142.083 297.172C141.489 297.686 140.975 298.279 140.619 298.951C140.422 299.268 140.303 299.624 140.185 299.98C140.105 300.335 140.066 300.691 140.066 301.047C140.105 301.403 140.145 301.759 140.264 302.075C140.382 302.392 140.54 302.748 140.738 303.024C141.134 303.618 141.687 304.132 142.28 304.606C143.506 305.516 144.93 306.148 146.393 306.662C147.856 307.176 149.438 307.493 150.98 307.691C152.522 307.888 154.104 308.007 155.686 308.007C157.267 308.007 158.849 307.888 160.391 307.691C161.934 307.453 163.515 307.137 164.978 306.662C166.442 306.148 167.905 305.516 169.091 304.606C169.684 304.132 170.238 303.618 170.633 303.024C170.831 302.708 170.989 302.392 171.147 302.075C171.266 301.719 171.345 301.403 171.345 301.047C171.345 300.691 171.306 300.335 171.226 299.98C171.108 299.624 170.989 299.268 170.791 298.951C170.436 298.279 169.921 297.686 169.328 297.172C168.142 296.144 166.679 295.353 165.176 294.76C162.369 293.573 159.086 293.059 155.804 293.059Z" fill="url(#paint15_linear_24644_2973)"/>
</g>
<path d="M225.639 178.738C224.887 160.469 209.94 145.6 191.671 144.968C183.485 144.691 175.932 147.182 169.842 151.611C161.341 157.74 149.873 157.74 141.371 151.611C135.281 147.222 127.689 144.691 119.543 144.968C101.273 145.6 86.2863 160.429 85.5746 178.738C84.9023 195.347 95.7373 209.543 110.764 214.011C116.142 215.593 120.294 219.785 121.876 225.163C126.226 239.715 139.71 250.312 155.646 250.312C171.582 250.312 185.067 239.715 189.417 225.163C191.038 219.785 195.151 215.593 200.528 214.011C215.476 209.543 226.311 195.347 225.639 178.738Z" fill="url(#paint16_radial_24644_2973)"/>
<path d="M62.7181 197.047C72.393 197.047 80.236 189.204 80.236 179.529C80.236 169.854 72.393 162.011 62.7181 162.011C53.0432 162.011 45.2002 169.854 45.2002 179.529C45.2002 189.204 53.0432 197.047 62.7181 197.047Z" fill="url(#paint17_radial_24644_2973)"/>
<path d="M146.986 187.082C147.991 187.082 148.805 186.267 148.805 185.263C148.805 184.258 147.991 183.444 146.986 183.444C145.982 183.444 145.167 184.258 145.167 185.263C145.167 186.267 145.982 187.082 146.986 187.082Z" fill="url(#paint18_linear_24644_2973)"/>
<path d="M173.481 175.97C172.492 175.97 171.661 176.761 171.661 177.789C171.661 178.817 172.452 179.608 173.481 179.608C174.469 179.608 175.3 178.817 175.3 177.789C175.3 176.761 174.509 175.97 173.481 175.97Z" fill="url(#paint19_linear_24644_2973)"/>
<path d="M146.986 206.102C147.991 206.102 148.805 205.288 148.805 204.283C148.805 203.279 147.991 202.464 146.986 202.464C145.982 202.464 145.167 203.279 145.167 204.283C145.167 205.288 145.982 206.102 146.986 206.102Z" fill="url(#paint20_linear_24644_2973)"/>
<path d="M168.34 204.797C167.351 204.797 166.521 205.588 166.521 206.616C166.521 207.605 167.312 208.436 168.34 208.436C169.328 208.436 170.159 207.645 170.159 206.616C170.159 205.628 169.328 204.797 168.34 204.797Z" fill="url(#paint21_linear_24644_2973)"/>
<path d="M151.375 196.849C149.675 196.849 148.291 198.233 148.291 199.934C148.291 201.634 149.675 203.018 151.375 203.018C153.076 203.018 154.46 201.634 154.46 199.934C154.46 198.233 153.076 196.849 151.375 196.849Z" fill="url(#paint22_linear_24644_2973)"/>
<path d="M159.601 194.714C159.601 193.607 160.471 192.737 161.578 192.737C163.278 192.737 164.741 191.392 164.741 189.652C164.741 187.952 163.357 186.528 161.657 186.568C159.957 186.568 158.572 188.031 158.572 189.731C158.572 190.799 157.703 191.708 156.595 191.708H156.398C155.33 191.708 154.42 190.839 154.42 189.731C154.42 188.031 153.076 186.568 151.336 186.568C149.636 186.568 148.212 187.952 148.252 189.652C148.252 191.353 149.715 192.737 151.415 192.737C152.483 192.737 153.392 193.607 153.392 194.714V194.793C153.392 196.533 154.855 197.956 156.635 197.877C158.335 197.798 159.601 196.375 159.601 194.714Z" fill="url(#paint23_linear_24644_2973)"/>
<path d="M165.018 201.476C164.979 201.476 165.018 201.476 165.018 201.476C164.86 201.476 164.741 201.357 164.741 201.239V199.973C164.741 199.973 164.741 199.973 164.741 199.934C164.741 198.194 163.278 196.77 161.538 196.849C159.957 196.928 158.652 198.233 158.572 199.815C158.493 201.555 159.917 203.018 161.657 203.018H162.962C163.08 203.018 163.199 203.137 163.199 203.255C163.199 204.283 164.069 205.114 165.137 205.035C166.046 204.995 166.758 204.244 166.837 203.334C166.877 202.346 166.046 201.476 165.018 201.476Z" fill="url(#paint24_linear_24644_2973)"/>
<path d="M170.238 179.331C169.17 179.252 168.3 180.083 168.3 181.15C168.3 181.269 168.182 181.388 168.063 181.388H166.798C166.798 181.388 166.798 181.388 166.758 181.388C165.018 181.388 163.594 182.851 163.674 184.591C163.753 186.172 165.058 187.477 166.639 187.556C168.379 187.635 169.842 186.212 169.842 184.472V183.167C169.842 183.048 169.961 182.93 170.08 182.93C171.108 182.93 171.938 182.06 171.859 180.992C171.899 180.122 171.147 179.41 170.238 179.331Z" fill="url(#paint25_linear_24644_2973)"/>
<path d="M15.7796 233.902L15.7401 233.823L26.8519 227.891C28.0382 227.258 28.4732 225.795 27.8405 224.609C23.2139 215.751 26.8519 204.718 36.1447 200.487C44.093 196.889 53.7022 199.775 58.2893 207.21C63.6672 215.909 60.5037 227.179 51.6459 231.925C51.6064 231.964 51.5668 231.964 51.5273 232.004C50.341 232.636 49.906 234.099 50.5387 235.286L56.233 245.963C56.2725 246.042 56.3121 246.081 56.3516 246.16C64.3395 261.068 58.2497 279.535 42.8672 287.009C28.9082 293.811 11.9439 288.789 4.11422 275.423C-4.50633 260.673 0.91117 241.929 15.7796 233.902Z" fill="url(#paint26_radial_24644_2973)"/>
<path d="M43.3416 233.981C53.0384 233.981 60.8991 226.12 60.8991 216.423C60.8991 206.727 53.0384 198.866 43.3416 198.866C33.6449 198.866 25.7842 206.727 25.7842 216.423C25.7842 226.12 33.6449 233.981 43.3416 233.981Z" fill="url(#paint27_radial_24644_2973)"/>
<path d="M29.9364 290.133C46.4689 290.133 59.8711 276.731 59.8711 260.198C59.8711 243.666 46.4689 230.264 29.9364 230.264C13.4039 230.264 0.00170898 243.666 0.00170898 260.198C0.00170898 276.731 13.4039 290.133 29.9364 290.133Z" fill="url(#paint28_radial_24644_2973)"/>
<path d="M57.8543 249.403C49.2337 269.847 27.5637 281.631 5.81458 277.914C9.49215 282.976 14.8306 286.93 21.2762 288.868C37.0937 293.652 53.8208 284.755 58.6056 268.938C60.6223 262.255 60.1873 255.414 57.8543 249.403Z" fill="#1BF4F6"/>
<path d="M57.8543 249.403C56.9052 251.894 55.6793 254.306 54.2953 256.6C52.8717 258.893 51.29 261.029 49.5105 263.046C45.9516 267.079 41.6808 270.44 36.9751 273.05C32.2299 275.62 27.0892 277.4 21.7903 278.23C19.1409 278.626 16.4519 278.824 13.7629 278.784C11.0739 278.705 8.42447 278.428 5.81458 277.914C8.46401 278.27 11.1135 278.468 13.7629 278.389C16.4123 278.349 19.0618 278.112 21.6717 277.637C26.8914 276.688 31.953 274.948 36.5797 272.378C41.2458 269.847 45.4375 266.525 49.036 262.65C50.855 260.712 52.4763 258.617 53.9394 256.402C55.4421 254.188 56.747 251.815 57.8543 249.403Z" fill="url(#paint29_linear_24644_2973)"/>
<path d="M58.7241 298.279H57.7355C54.8884 298.279 52.5553 295.946 52.5553 293.099V289.817C52.5553 288.709 53.4648 287.8 54.572 287.8H61.9272C63.0344 287.8 63.9439 288.709 63.9439 289.817V293.099C63.9044 295.906 61.5713 298.279 58.7241 298.279Z" fill="url(#paint30_linear_24644_2973)"/>
<path d="M52.16 287.049L51.0527 282.976L61.5714 273.208L64.1417 286.297C64.2999 287.207 63.7068 288.037 62.7972 288.156L53.8603 288.195C53.109 288.275 52.3577 287.8 52.16 287.049Z" fill="url(#paint31_linear_24644_2973)"/>
<path opacity="0.4" d="M52.0809 286.811L64.1418 286.258C64.3 287.167 63.7068 287.998 62.7973 288.116L53.8604 288.156C53.1091 288.275 52.3182 287.8 52.0809 286.811Z" fill="url(#paint32_linear_24644_2973)"/>
<path d="M14.1189 313.78L12.7348 314.057C10.2831 314.571 7.83141 312.989 7.31734 310.538L7.04053 309.272C6.84281 308.323 7.43597 307.374 8.38502 307.176L15.2656 305.753C16.2147 305.555 17.1638 306.148 17.3615 307.097L17.6383 308.363C18.1523 310.815 16.5706 313.266 14.1189 313.78Z" fill="url(#paint33_linear_24644_2973)"/>
<path d="M14.8306 307.335L8.97811 307.374C7.35681 307.374 6.05187 306.069 6.01232 304.487L5.97278 301.561C5.97278 299.94 7.27773 298.635 8.85948 298.595L14.712 298.556C16.3333 298.556 17.6382 299.861 17.6778 301.443L17.7173 304.369C17.7568 305.99 16.4519 307.335 14.8306 307.335Z" fill="url(#paint34_linear_24644_2973)"/>
<path opacity="0.4" d="M14.8306 307.335L8.97812 307.374C7.35682 307.374 6.05187 306.069 6.01233 304.487L17.7173 304.369C17.7568 305.99 16.4519 307.335 14.8306 307.335Z" fill="url(#paint35_linear_24644_2973)"/>
<path d="M14.6725 300.217L8.34546 299.07C6.60553 298.754 5.41921 297.053 5.73556 295.313L6.4869 291.28C6.80325 289.54 8.50363 288.354 10.2436 288.67L16.5706 289.817C18.3105 290.133 19.4968 291.833 19.1805 293.573L18.4291 297.607C18.1128 299.386 16.4124 300.533 14.6725 300.217Z" fill="url(#paint36_linear_24644_2973)"/>
<path opacity="0.4" d="M14.6725 300.217L8.34546 299.07C6.60553 298.754 5.41921 297.053 5.73556 295.313L18.4291 297.607C18.1128 299.386 16.4124 300.533 14.6725 300.217Z" fill="url(#paint37_linear_24644_2973)"/>
<path d="M18.5872 317.26L17.2032 317.537C14.7515 318.011 12.3393 316.43 11.8252 313.938L11.588 312.673C11.3903 311.724 12.023 310.775 12.972 310.617L19.8526 309.233C20.8017 309.035 21.7507 309.668 21.9089 310.617L22.1462 311.882C22.6603 314.334 21.039 316.746 18.5872 317.26Z" fill="url(#paint38_linear_24644_2973)"/>
<path d="M19.3781 310.814H13.5256C11.9043 310.814 10.5994 309.51 10.5994 307.888V304.962C10.5994 303.341 11.9043 302.036 13.5256 302.036H19.3781C20.9994 302.036 22.3043 303.341 22.3043 304.962V307.888C22.3043 309.51 20.9994 310.814 19.3781 310.814Z" fill="url(#paint39_linear_24644_2973)"/>
<path opacity="0.4" d="M19.3781 310.814H13.5256C11.9043 310.814 10.5994 309.51 10.5994 307.888H22.3043C22.3043 309.51 20.9994 310.814 19.3781 310.814Z" fill="url(#paint40_linear_24644_2973)"/>
<path d="M19.2595 303.697L12.9325 302.471C11.1926 302.154 10.0458 300.454 10.3621 298.714L11.1135 294.681C11.4298 292.941 13.1302 291.794 14.8701 292.11L21.1972 293.336C22.9371 293.652 24.0839 295.353 23.7675 297.093L23.0162 301.126C22.6998 302.866 20.9994 304.013 19.2595 303.697Z" fill="url(#paint41_linear_24644_2973)"/>
<path opacity="0.4" d="M19.2595 303.697L12.9325 302.471C11.1926 302.154 10.0458 300.454 10.3621 298.714L23.0162 301.126C22.6998 302.866 20.9994 304.013 19.2595 303.697Z" fill="url(#paint42_linear_24644_2973)"/>
<path d="M28.2755 319.83L26.931 320.226C24.5188 320.898 21.988 319.514 21.2763 317.102L20.9204 315.876C20.6436 314.927 21.1972 313.978 22.1462 313.701L28.9082 311.764C29.8573 311.487 30.8063 312.04 31.0831 312.989L31.439 314.215C32.1113 316.588 30.7272 319.158 28.2755 319.83Z" fill="url(#paint43_linear_24644_2973)"/>
<path d="M28.5523 313.345L22.6998 313.82C21.0785 313.938 19.655 312.752 19.5363 311.131L19.2991 308.205C19.1804 306.583 20.3668 305.16 21.988 305.041L27.8405 304.567C29.4618 304.448 30.8854 305.634 31.004 307.256L31.2413 310.182C31.3995 311.803 30.1736 313.227 28.5523 313.345Z" fill="url(#paint44_linear_24644_2973)"/>
<path opacity="0.4" d="M28.5524 313.345L22.6999 313.82C21.0786 313.938 19.655 312.752 19.5364 311.131L31.2414 310.182C31.3995 311.803 30.1737 313.227 28.5524 313.345Z" fill="url(#paint45_linear_24644_2973)"/>
<path d="M27.9196 306.267L21.5135 305.555C19.734 305.357 18.4686 303.776 18.6663 301.996L19.1013 297.923C19.299 296.144 20.8808 294.878 22.6603 295.076L29.0664 295.788C30.8458 295.986 32.1112 297.567 31.9135 299.347L31.4785 303.42C31.2808 305.199 29.6595 306.465 27.9196 306.267Z" fill="url(#paint46_linear_24644_2973)"/>
<path opacity="0.4" d="M27.9196 306.267L21.5135 305.555C19.734 305.357 18.4686 303.776 18.6663 301.996L31.4785 303.38C31.2808 305.199 29.6595 306.465 27.9196 306.267Z" fill="url(#paint47_linear_24644_2973)"/>
<path d="M62.0855 272.931C61.7296 272.655 61.5714 272.259 61.5319 271.824L59.9897 265.497C59.7919 264.667 59.7129 263.797 59.7919 262.927C60.1874 258.696 59.6733 254.504 58.3288 250.629C58.2102 250.985 58.1311 251.38 58.0125 251.736C51.4087 273.446 28.4732 285.744 6.76367 279.179C8.22679 280.919 8.78041 283.213 8.2268 285.427C7.98953 286.297 7.75227 287.088 7.55455 287.444C7.04048 288.354 7.08002 289.5 7.63364 289.935C14.712 295.036 23.293 297.646 32.0322 297.33C32.744 297.291 33.4162 296.341 33.4953 295.313C33.4953 295.116 33.5744 294.839 33.6535 294.522C34.3653 291.833 36.4611 289.698 39.1105 288.828C39.2687 288.789 39.4269 288.709 39.5851 288.67C41.3645 288.037 43.144 287.563 45.0026 287.286L48.9174 286.653C49.3128 286.574 49.7874 286.693 50.0642 286.97C50.6969 287.523 51.6459 287.484 52.1995 286.851L62.2437 275.106C62.7577 274.434 62.7182 273.485 62.0855 272.931Z" fill="url(#paint48_radial_24644_2973)"/>
<path opacity="0.4" d="M62.046 272.932C62.6787 273.485 62.7577 274.434 62.2437 275.027L52.1995 286.732C51.6855 287.365 50.7364 287.444 50.1037 286.89C49.7478 286.614 61.7296 272.655 62.046 272.932Z" fill="url(#paint49_linear_24644_2973)"/>
<path opacity="0.4" d="M7.55458 287.444C7.04051 288.354 7.08005 289.5 7.63367 289.935C14.712 295.037 23.293 297.646 31.9927 297.33C32.7045 297.291 33.3767 296.341 33.4558 295.313C33.4953 294.641 25.9029 295.511 19.3386 293.534C13.0907 291.636 7.95001 287.84 7.55458 287.444Z" fill="url(#paint50_linear_24644_2973)"/>
<path d="M58.3288 250.629C57.2216 256.007 54.8094 261.147 51.4877 265.576C49.8269 267.791 47.8893 269.847 45.833 271.706C43.7371 273.525 41.4436 275.146 38.9919 276.53C36.5402 277.874 33.9698 278.982 31.2808 279.812C28.5919 280.603 25.8633 281.157 23.0953 281.354C17.5591 281.789 11.9439 281.038 6.76367 279.219C12.1021 280.366 17.5987 280.761 22.9371 280.128C25.6261 279.773 28.236 279.219 30.8063 278.389C33.3767 277.558 35.8284 276.49 38.1615 275.186C40.4946 273.881 42.709 272.338 44.7653 270.638C46.8216 268.938 48.7197 267 50.4596 264.904C53.9395 260.673 56.5889 255.849 58.3288 250.629Z" fill="url(#paint51_radial_24644_2973)"/>
<path d="M249.246 197.047C258.921 197.047 266.764 189.204 266.764 179.529C266.764 169.854 258.921 162.011 249.246 162.011C239.572 162.011 231.729 169.854 231.729 179.529C231.729 189.204 239.572 197.047 249.246 197.047Z" fill="url(#paint52_radial_24644_2973)"/>
<path d="M296.224 233.902L296.264 233.823L285.152 227.891C283.966 227.258 283.531 225.795 284.164 224.609C288.79 215.751 285.152 204.718 275.859 200.487C267.911 196.889 258.302 199.775 253.715 207.21C248.337 215.909 251.5 227.179 260.358 231.925C260.398 231.964 260.437 231.964 260.477 232.004C261.663 232.636 262.098 234.099 261.465 235.286L255.771 245.963C255.732 246.042 255.692 246.081 255.653 246.16C247.665 261.068 253.754 279.535 269.137 287.009C283.096 293.811 300.06 288.789 307.89 275.423C316.51 260.673 311.093 241.929 296.224 233.902Z" fill="url(#paint53_radial_24644_2973)"/>
<path d="M268.662 233.981C278.359 233.981 286.22 226.12 286.22 216.423C286.22 206.727 278.359 198.866 268.662 198.866C258.966 198.866 251.105 206.727 251.105 216.423C251.105 226.12 258.966 233.981 268.662 233.981Z" fill="url(#paint54_radial_24644_2973)"/>
<path d="M282.068 290.133C298.6 290.133 312.002 276.731 312.002 260.198C312.002 243.666 298.6 230.264 282.068 230.264C265.535 230.264 252.133 243.666 252.133 260.198C252.133 276.731 265.535 290.133 282.068 290.133Z" fill="url(#paint55_radial_24644_2973)"/>
<path d="M254.15 249.403C262.77 269.847 284.44 281.631 306.19 277.914C302.512 282.976 297.174 286.93 290.728 288.868C274.91 293.652 258.183 284.755 253.399 268.938C251.382 262.255 251.817 255.414 254.15 249.403Z" fill="#1BF4F6"/>
<path d="M254.15 249.403C255.257 251.815 256.562 254.188 258.025 256.363C259.488 258.577 261.11 260.673 262.929 262.611C266.527 266.486 270.758 269.808 275.385 272.338C280.012 274.909 285.073 276.649 290.293 277.598C292.903 278.072 295.552 278.349 298.202 278.349C300.851 278.428 303.54 278.23 306.15 277.874C303.54 278.428 300.851 278.665 298.202 278.744C295.513 278.784 292.824 278.586 290.174 278.191C284.875 277.36 279.695 275.581 274.99 273.011C270.284 270.401 266.013 267.039 262.454 263.006C260.675 260.989 259.093 258.814 257.669 256.56C256.325 254.306 255.099 251.894 254.15 249.403Z" fill="url(#paint56_linear_24644_2973)"/>
<path d="M253.28 298.279H254.229C257.076 298.279 259.409 295.946 259.409 293.099V289.817C259.409 288.709 258.5 287.8 257.392 287.8H250.037C248.93 287.8 248.021 288.709 248.021 289.817V293.099C248.1 295.906 250.433 298.279 253.28 298.279Z" fill="url(#paint57_linear_24644_2973)"/>
<path d="M259.844 287.049L260.951 282.976L250.433 273.208L247.862 286.297C247.704 287.207 248.297 288.037 249.207 288.156L258.144 288.195C258.895 288.275 259.646 287.8 259.844 287.049Z" fill="url(#paint58_linear_24644_2973)"/>
<path opacity="0.4" d="M259.884 286.811L247.823 286.258C247.665 287.167 248.258 287.998 249.167 288.116L258.104 288.156C258.895 288.275 259.686 287.8 259.884 286.811Z" fill="url(#paint59_linear_24644_2973)"/>
<path d="M297.885 313.78L299.269 314.057C301.721 314.571 304.173 312.989 304.687 310.538L304.964 309.272C305.161 308.323 304.568 307.374 303.619 307.176L296.739 305.753C295.79 305.555 294.84 306.148 294.643 307.097L294.366 308.363C293.852 310.815 295.434 313.266 297.885 313.78Z" fill="url(#paint60_linear_24644_2973)"/>
<path d="M297.174 307.335L303.026 307.374C304.647 307.374 305.952 306.069 305.992 304.487L306.031 301.561C306.031 299.94 304.726 298.635 303.145 298.595L297.292 298.556C295.671 298.556 294.366 299.861 294.326 301.443L294.287 304.369C294.247 305.99 295.552 307.335 297.174 307.335Z" fill="url(#paint61_linear_24644_2973)"/>
<path opacity="0.4" d="M297.174 307.335L303.026 307.374C304.647 307.374 305.952 306.069 305.992 304.487L294.287 304.369C294.247 305.99 295.552 307.335 297.174 307.335Z" fill="url(#paint62_linear_24644_2973)"/>
<path d="M297.332 300.217L303.659 299.07C305.399 298.754 306.585 297.053 306.269 295.313L305.517 291.28C305.201 289.54 303.501 288.354 301.761 288.67L295.434 289.817C293.694 290.133 292.507 291.833 292.824 293.573L293.575 297.607C293.891 299.386 295.552 300.533 297.332 300.217Z" fill="url(#paint63_linear_24644_2973)"/>
<path opacity="0.4" d="M297.332 300.217L303.659 299.07C305.399 298.754 306.585 297.053 306.269 295.313L293.575 297.607C293.891 299.386 295.552 300.533 297.332 300.217Z" fill="url(#paint64_linear_24644_2973)"/>
<path d="M293.417 317.26L294.801 317.537C297.253 318.011 299.665 316.43 300.179 313.938L300.416 312.673C300.614 311.724 299.981 310.775 299.032 310.617L292.151 309.233C291.202 309.035 290.253 309.668 290.095 310.617L289.858 311.882C289.344 314.334 290.965 316.746 293.417 317.26Z" fill="url(#paint65_linear_24644_2973)"/>
<path d="M292.626 310.814H298.479C300.1 310.814 301.405 309.51 301.405 307.888V304.962C301.405 303.341 300.1 302.036 298.479 302.036H292.626C291.005 302.036 289.7 303.341 289.7 304.962V307.888C289.7 309.51 291.005 310.814 292.626 310.814Z" fill="url(#paint66_linear_24644_2973)"/>
<path opacity="0.4" d="M292.626 310.814H298.479C300.1 310.814 301.405 309.51 301.405 307.888H289.7C289.7 309.51 291.005 310.814 292.626 310.814Z" fill="url(#paint67_linear_24644_2973)"/>
<path d="M292.745 303.697L299.072 302.471C300.812 302.154 301.958 300.454 301.642 298.714L300.891 294.681C300.574 292.941 298.874 291.794 297.134 292.11L290.807 293.336C289.067 293.652 287.92 295.353 288.237 297.093L288.988 301.126C289.304 302.866 291.005 304.013 292.745 303.697Z" fill="url(#paint68_linear_24644_2973)"/>
<path opacity="0.4" d="M292.745 303.697L299.072 302.471C300.812 302.154 301.958 300.454 301.642 298.714L288.988 301.126C289.304 302.866 291.005 304.013 292.745 303.697Z" fill="url(#paint69_linear_24644_2973)"/>
<path d="M283.689 319.83L285.034 320.226C287.446 320.898 289.977 319.514 290.688 317.102L291.044 315.876C291.321 314.927 290.767 313.978 289.818 313.701L283.056 311.764C282.107 311.487 281.158 312.04 280.881 312.989L280.526 314.215C279.893 316.588 281.277 319.158 283.689 319.83Z" fill="url(#paint70_linear_24644_2973)"/>
<path d="M283.412 313.345L289.265 313.82C290.886 313.938 292.31 312.752 292.428 311.131L292.666 308.205C292.784 306.583 291.598 305.16 289.977 305.041L284.124 304.567C282.503 304.448 281.079 305.634 280.961 307.256L280.763 310.182C280.605 311.803 281.831 313.227 283.412 313.345Z" fill="url(#paint71_linear_24644_2973)"/>
<path opacity="0.4" d="M283.412 313.345L289.265 313.82C290.886 313.938 292.31 312.752 292.428 311.131L280.763 310.182C280.605 311.803 281.831 313.227 283.412 313.345Z" fill="url(#paint72_linear_24644_2973)"/>
<path d="M284.084 306.267L290.491 305.555C292.27 305.357 293.535 303.776 293.338 301.996L292.903 297.923C292.705 296.144 291.123 294.878 289.344 295.076L282.938 295.788C281.158 295.986 279.893 297.567 280.091 299.347L280.526 303.42C280.723 305.199 282.345 306.465 284.084 306.267Z" fill="url(#paint73_linear_24644_2973)"/>
<path opacity="0.4" d="M284.085 306.267L290.491 305.555C292.27 305.357 293.535 303.776 293.338 301.996L280.526 303.38C280.723 305.199 282.345 306.465 284.085 306.267Z" fill="url(#paint74_linear_24644_2973)"/>
<path d="M249.919 272.931C250.275 272.655 250.433 272.259 250.472 271.824L252.014 265.497C252.212 264.667 252.291 263.797 252.212 262.927C251.817 258.696 252.331 254.504 253.675 250.629C253.794 250.985 253.873 251.38 253.992 251.736C260.595 273.446 283.531 285.744 305.24 279.179C303.777 280.919 303.224 283.213 303.777 285.427C304.015 286.297 304.252 287.088 304.45 287.444C304.964 288.354 304.924 289.5 304.371 289.935C297.292 295.036 288.711 297.646 279.972 297.33C279.26 297.291 278.588 296.341 278.509 295.313C278.509 295.116 278.43 294.839 278.351 294.522C277.639 291.833 275.543 289.698 272.894 288.828C272.735 288.789 272.577 288.709 272.419 288.67C270.64 288.037 268.86 287.563 267.002 287.286L263.087 286.653C262.691 286.574 262.217 286.693 261.94 286.97C261.307 287.523 260.358 287.484 259.805 286.851L249.76 275.106C249.207 274.434 249.286 273.485 249.919 272.931Z" fill="url(#paint75_radial_24644_2973)"/>
<path opacity="0.4" d="M249.958 272.932C249.325 273.485 249.246 274.434 249.76 275.027L259.805 286.732C260.319 287.365 261.268 287.444 261.9 286.89C262.256 286.614 250.275 272.655 249.958 272.932Z" fill="url(#paint76_linear_24644_2973)"/>
<path opacity="0.4" d="M304.45 287.444C304.964 288.354 304.924 289.5 304.371 289.935C297.292 295.037 288.711 297.646 280.012 297.33C279.3 297.291 278.628 296.341 278.548 295.313C278.509 294.641 286.101 295.511 292.666 293.534C298.914 291.636 304.054 287.84 304.45 287.444Z" fill="url(#paint77_linear_24644_2973)"/>
<path d="M253.675 250.629C255.415 255.809 258.065 260.633 261.505 264.825C263.245 266.881 265.103 268.819 267.199 270.559C269.256 272.299 271.47 273.841 273.803 275.106C276.136 276.411 278.627 277.479 281.158 278.309C283.689 279.14 286.339 279.733 289.027 280.049C294.366 280.722 299.862 280.326 305.201 279.14C300.021 280.959 294.445 281.75 288.869 281.275C286.101 281.078 283.333 280.524 280.684 279.733C278.034 278.903 275.424 277.795 272.973 276.451C270.561 275.067 268.227 273.485 266.132 271.627C264.036 269.768 262.138 267.751 260.477 265.497C257.155 261.147 254.783 256.007 253.675 250.629Z" fill="url(#paint78_radial_24644_2973)"/>
<defs>
<linearGradient id="paint0_linear_24644_2973" x1="82.0862" y1="-0.298453" x2="82.0862" y2="85.0159" gradientUnits="userSpaceOnUse">
<stop stop-color="#DCFDFF"/>
<stop offset="0.8" stop-color="#A0A0FF"/>
<stop offset="1" stop-color="#B6B7FF"/>
</linearGradient>
<linearGradient id="paint1_linear_24644_2973" x1="85.7412" y1="0.402425" x2="85.7412" y2="85.0246" gradientUnits="userSpaceOnUse">
<stop stop-color="#2E3192"/>
<stop offset="0.8" stop-color="#1B1464"/>
<stop offset="1" stop-color="#2E3192"/>
</linearGradient>
<linearGradient id="paint2_linear_24644_2973" x1="84.5303" y1="54.0069" x2="84.5303" y2="86.0246" gradientUnits="userSpaceOnUse">
<stop stop-color="#DCFDFF"/>
<stop offset="0.8" stop-color="#A0A0FF"/>
<stop offset="1" stop-color="#B6B7FF"/>
</linearGradient>
<linearGradient id="paint3_linear_24644_2973" x1="230.95" y1="-0.298453" x2="230.95" y2="85.0159" gradientUnits="userSpaceOnUse">
<stop stop-color="#DCFDFF"/>
<stop offset="0.8" stop-color="#A0A0FF"/>
<stop offset="1" stop-color="#B6B7FF"/>
</linearGradient>
<linearGradient id="paint4_linear_24644_2973" x1="234.545" y1="0.402425" x2="234.545" y2="85.0246" gradientUnits="userSpaceOnUse">
<stop stop-color="#2E3192"/>
<stop offset="0.8" stop-color="#1B1464"/>
<stop offset="1" stop-color="#2E3192"/>
</linearGradient>
<linearGradient id="paint5_linear_24644_2973" x1="228.506" y1="54.0069" x2="228.506" y2="86.0246" gradientUnits="userSpaceOnUse">
<stop stop-color="#DCFDFF"/>
<stop offset="0.8" stop-color="#A0A0FF"/>
<stop offset="1" stop-color="#B6B7FF"/>
</linearGradient>
<radialGradient id="paint6_radial_24644_2973" cx="0" cy="0" r="1" gradientUnits="userSpaceOnUse" gradientTransform="translate(133.405 33.965) scale(112.378)">
<stop stop-color="#DCFDFF"/>
<stop offset="0.8" stop-color="#A0A0FF"/>
<stop offset="1" stop-color="#B6B7FF"/>
</radialGradient>
<radialGradient id="paint7_radial_24644_2973" cx="0" cy="0" r="1" gradientUnits="userSpaceOnUse" gradientTransform="translate(156.762 70.1004) scale(49.612 49.612)">
<stop stop-color="#4A00C6"/>
<stop offset="0.2424" stop-color="#4100B3"/>
<stop offset="0.7307" stop-color="#290082"/>
<stop offset="1" stop-color="#1B0065"/>
</radialGradient>
<linearGradient id="paint8_linear_24644_2973" x1="206.125" y1="58.6548" x2="106.584" y2="58.42" gradientUnits="userSpaceOnUse">
<stop stop-color="#DCFDFF" stop-opacity="0"/>
<stop offset="1" stop-color="#8AB2E0" stop-opacity="0.5"/>
</linearGradient>
<linearGradient id="paint9_linear_24644_2973" x1="174.21" y1="93.0793" x2="208.773" y2="93.1608" gradientUnits="userSpaceOnUse">
<stop stop-color="#DCFDFF" stop-opacity="0"/>
<stop offset="1" stop-color="#8AB2E0" stop-opacity="0.5"/>
</linearGradient>
<linearGradient id="paint10_linear_24644_2973" x1="216.599" y1="69.9605" x2="96.925" y2="69.9605" gradientUnits="userSpaceOnUse">
<stop stop-color="#EAF6FE"/>
<stop offset="1" stop-color="#748FC9"/>
</linearGradient>
<linearGradient id="paint11_linear_24644_2973" x1="155.816" y1="267.088" x2="155.816" y2="231.069" gradientUnits="userSpaceOnUse">
<stop offset="0.0171145" stop-color="#00FFFF"/>
<stop offset="1" stop-color="#662D91" stop-opacity="0"/>
</linearGradient>
<linearGradient id="paint12_linear_24644_2973" x1="155.817" y1="280.832" x2="155.817" y2="249.315" gradientUnits="userSpaceOnUse">
<stop offset="0.0171145" stop-color="#00FFFF"/>
<stop offset="1" stop-color="#662D91" stop-opacity="0"/>
</linearGradient>
<linearGradient id="paint13_linear_24644_2973" x1="155.817" y1="292.576" x2="155.817" y2="265.562" gradientUnits="userSpaceOnUse">
<stop offset="0.0171145" stop-color="#00FFFF"/>
<stop offset="1" stop-color="#662D91" stop-opacity="0"/>
</linearGradient>
<linearGradient id="paint14_linear_24644_2973" x1="155.818" y1="302.321" x2="155.818" y2="279.809" gradientUnits="userSpaceOnUse">
<stop offset="0.0171145" stop-color="#00FFFF"/>
<stop offset="1" stop-color="#662D91" stop-opacity="0"/>
</linearGradient>
<linearGradient id="paint15_linear_24644_2973" x1="155.819" y1="310.067" x2="155.819" y2="292.057" gradientUnits="userSpaceOnUse">
<stop offset="0.0171145" stop-color="#00FFFF"/>
<stop offset="1" stop-color="#662D91" stop-opacity="0"/>
</linearGradient>
<radialGradient id="paint16_radial_24644_2973" cx="0" cy="0" r="1" gradientUnits="userSpaceOnUse" gradientTransform="translate(133.027 169.697) scale(80.2525 80.2525)">
<stop stop-color="#DCFDFF"/>
<stop offset="0.8" stop-color="#A0A0FF"/>
<stop offset="1" stop-color="#B6B7FF"/>
</radialGradient>
<radialGradient id="paint17_radial_24644_2973" cx="0" cy="0" r="1" gradientUnits="userSpaceOnUse" gradientTransform="translate(56.1086 171.68) scale(26.9175 26.9175)">
<stop stop-color="#DCFDFF"/>
<stop offset="0.8" stop-color="#A0A0FF"/>
<stop offset="1" stop-color="#B6B7FF"/>
</radialGradient>
<linearGradient id="paint18_linear_24644_2973" x1="144.106" y1="204.859" x2="148.943" y2="172.154" gradientUnits="userSpaceOnUse">
<stop stop-color="#FFA019"/>
<stop offset="0.00561523" stop-color="#ECB028"/>
<stop offset="0.1872" stop-color="#E9712D"/>
<stop offset="0.33" stop-color="#E63C32"/>
<stop offset="0.66" stop-color="#D2005A"/>
<stop offset="0.7506" stop-color="#C1045C"/>
<stop offset="0.9291" stop-color="#950F62"/>
<stop offset="1" stop-color="#821464"/>
</linearGradient>
<linearGradient id="paint19_linear_24644_2973" x1="168.954" y1="208.533" x2="173.791" y2="175.828" gradientUnits="userSpaceOnUse">
<stop stop-color="#FFA019"/>
<stop offset="0.00561523" stop-color="#ECB028"/>
<stop offset="0.1872" stop-color="#E9712D"/>
<stop offset="0.33" stop-color="#E63C32"/>
<stop offset="0.66" stop-color="#D2005A"/>
<stop offset="0.7506" stop-color="#C1045C"/>
<stop offset="0.9291" stop-color="#950F62"/>
<stop offset="1" stop-color="#821464"/>
</linearGradient>
<linearGradient id="paint20_linear_24644_2973" x1="146.858" y1="205.266" x2="151.695" y2="172.561" gradientUnits="userSpaceOnUse">
<stop stop-color="#FFA019"/>
<stop offset="0.00561523" stop-color="#ECB028"/>
<stop offset="0.1872" stop-color="#E9712D"/>
<stop offset="0.33" stop-color="#E63C32"/>
<stop offset="0.66" stop-color="#D2005A"/>
<stop offset="0.7506" stop-color="#C1045C"/>
<stop offset="0.9291" stop-color="#950F62"/>
<stop offset="1" stop-color="#821464"/>
</linearGradient>
<linearGradient id="paint21_linear_24644_2973" x1="168.078" y1="208.405" x2="172.915" y2="175.701" gradientUnits="userSpaceOnUse">
<stop stop-color="#FFA019"/>
<stop offset="0.00561523" stop-color="#ECB028"/>
<stop offset="0.1872" stop-color="#E9712D"/>
<stop offset="0.33" stop-color="#E63C32"/>
<stop offset="0.66" stop-color="#D2005A"/>
<stop offset="0.7506" stop-color="#C1045C"/>
<stop offset="0.9291" stop-color="#950F62"/>
<stop offset="1" stop-color="#821464"/>
</linearGradient>
<linearGradient id="paint22_linear_24644_2973" x1="150.505" y1="205.805" x2="155.342" y2="173.1" gradientUnits="userSpaceOnUse">
<stop stop-color="#FFA019"/>
<stop offset="0.00561523" stop-color="#ECB028"/>
<stop offset="0.1872" stop-color="#E9712D"/>
<stop offset="0.33" stop-color="#E63C32"/>
<stop offset="0.66" stop-color="#D2005A"/>
<stop offset="0.7506" stop-color="#C1045C"/>
<stop offset="0.9291" stop-color="#950F62"/>
<stop offset="1" stop-color="#821464"/>
</linearGradient>
<linearGradient id="paint23_linear_24644_2973" x1="154.05" y1="206.329" x2="158.886" y2="173.624" gradientUnits="userSpaceOnUse">
<stop stop-color="#FFA019"/>
<stop offset="0.00561523" stop-color="#ECB028"/>
<stop offset="0.1872" stop-color="#E9712D"/>
<stop offset="0.33" stop-color="#E63C32"/>
<stop offset="0.66" stop-color="#D2005A"/>
<stop offset="0.7506" stop-color="#C1045C"/>
<stop offset="0.9291" stop-color="#950F62"/>
<stop offset="1" stop-color="#821464"/>
</linearGradient>
<linearGradient id="paint24_linear_24644_2973" x1="161.814" y1="207.477" x2="166.65" y2="174.773" gradientUnits="userSpaceOnUse">
<stop stop-color="#FFA019"/>
<stop offset="0.00561523" stop-color="#ECB028"/>
<stop offset="0.1872" stop-color="#E9712D"/>
<stop offset="0.33" stop-color="#E63C32"/>
<stop offset="0.66" stop-color="#D2005A"/>
<stop offset="0.7506" stop-color="#C1045C"/>
<stop offset="0.9291" stop-color="#950F62"/>
<stop offset="1" stop-color="#821464"/>
</linearGradient>
<linearGradient id="paint25_linear_24644_2973" x1="164.13" y1="207.82" x2="168.966" y2="175.115" gradientUnits="userSpaceOnUse">
<stop stop-color="#FFA019"/>
<stop offset="0.00561523" stop-color="#ECB028"/>
<stop offset="0.1872" stop-color="#E9712D"/>
<stop offset="0.33" stop-color="#E63C32"/>
<stop offset="0.66" stop-color="#D2005A"/>
<stop offset="0.7506" stop-color="#C1045C"/>
<stop offset="0.9291" stop-color="#950F62"/>
<stop offset="1" stop-color="#821464"/>
</linearGradient>
<radialGradient id="paint26_radial_24644_2973" cx="0" cy="0" r="1" gradientUnits="userSpaceOnUse" gradientTransform="translate(9.06661 245.752) scale(37.6481 37.6481)">
<stop stop-color="#DCFDFF"/>
<stop offset="0.8" stop-color="#A0A0FF"/>
<stop offset="1" stop-color="#B6B7FF"/>
</radialGradient>
<radialGradient id="paint27_radial_24644_2973" cx="0" cy="0" r="1" gradientUnits="userSpaceOnUse" gradientTransform="translate(38.1374 209.619) scale(26.3545 26.3545)">
<stop stop-color="#DCFDFF"/>
<stop offset="0.8" stop-color="#A0A0FF"/>
<stop offset="1" stop-color="#B6B7FF"/>
</radialGradient>
<radialGradient id="paint28_radial_24644_2973" cx="0" cy="0" r="1" gradientUnits="userSpaceOnUse" gradientTransform="translate(12.3968 248.527) scale(42.6245 42.6244)">
<stop stop-color="#DCFDFF"/>
<stop offset="0.8" stop-color="#A0A0FF"/>
<stop offset="1" stop-color="#B6B7FF"/>
</radialGradient>
<linearGradient id="paint29_linear_24644_2973" x1="5.7362" y1="264.105" x2="58.226" y2="264.105" gradientUnits="userSpaceOnUse">
<stop stop-color="#C0BFF6"/>
<stop offset="0.5" stop-color="#393091"/>
<stop offset="1" stop-color="#A8A6E4"/>
</linearGradient>
<linearGradient id="paint30_linear_24644_2973" x1="52.6247" y1="293.071" x2="63.9901" y2="293.071" gradientUnits="userSpaceOnUse">
<stop stop-color="#6C66B7"/>
<stop offset="0.8" stop-color="#393091"/>
<stop offset="1" stop-color="#4C449F"/>
</linearGradient>
<linearGradient id="paint31_linear_24644_2973" x1="51.3715" y1="284.578" x2="62.8873" y2="280.432" gradientUnits="userSpaceOnUse">
<stop stop-color="#6C66B7"/>
<stop offset="0.8" stop-color="#393091"/>
<stop offset="1" stop-color="#4C449F"/>
</linearGradient>
<linearGradient id="paint32_linear_24644_2973" x1="52.9904" y1="289.109" x2="62.8033" y2="285.576" gradientUnits="userSpaceOnUse">
<stop stop-color="#2E3192"/>
<stop offset="0.8" stop-color="#1B1464"/>
<stop offset="1" stop-color="#2E3192"/>
</linearGradient>
<linearGradient id="paint33_linear_24644_2973" x1="7.55091" y1="311.14" x2="17.8773" y2="308.984" gradientUnits="userSpaceOnUse">
<stop stop-color="#C0BFF6"/>
<stop offset="0.8" stop-color="#393091"/>
<stop offset="1" stop-color="#4C449F"/>
</linearGradient>
<linearGradient id="paint34_linear_24644_2973" x1="5.94873" y1="302.995" x2="17.6687" y2="302.894" gradientUnits="userSpaceOnUse">
<stop stop-color="#C0BFF6"/>
<stop offset="0.8" stop-color="#393091"/>
<stop offset="1" stop-color="#4C449F"/>
</linearGradient>
<linearGradient id="paint35_linear_24644_2973" x1="5.97396" y1="305.925" x2="17.694" y2="305.824" gradientUnits="userSpaceOnUse">
<stop stop-color="#2E3192"/>
<stop offset="0.8" stop-color="#1B1464"/>
<stop offset="1" stop-color="#2E3192"/>
</linearGradient>
<linearGradient id="paint36_linear_24644_2973" x1="6.09369" y1="293.309" x2="18.7772" y2="295.622" gradientUnits="userSpaceOnUse">
<stop stop-color="#C0BFF6"/>
<stop offset="0.8" stop-color="#393091"/>
<stop offset="1" stop-color="#4C449F"/>
</linearGradient>
<linearGradient id="paint37_linear_24644_2973" x1="5.43646" y1="296.912" x2="18.1199" y2="299.226" gradientUnits="userSpaceOnUse">
<stop stop-color="#2E3192"/>
<stop offset="0.8" stop-color="#1B1464"/>
<stop offset="1" stop-color="#2E3192"/>
</linearGradient>
<linearGradient id="paint38_linear_24644_2973" x1="11.8506" y1="314.573" x2="22.1935" y2="312.503" gradientUnits="userSpaceOnUse">
<stop stop-color="#C0BFF6"/>
<stop offset="0.8" stop-color="#393091"/>
<stop offset="1" stop-color="#4C449F"/>
</linearGradient>
<linearGradient id="paint39_linear_24644_2973" x1="10.6679" y1="306.441" x2="22.3892" y2="306.438" gradientUnits="userSpaceOnUse">
<stop stop-color="#C0BFF6"/>
<stop offset="0.8" stop-color="#393091"/>
<stop offset="1" stop-color="#4C449F"/>
</linearGradient>
<linearGradient id="paint40_linear_24644_2973" x1="10.6687" y1="309.371" x2="22.39" y2="309.368" gradientUnits="userSpaceOnUse">
<stop stop-color="#2E3192"/>
<stop offset="0.8" stop-color="#1B1464"/>
<stop offset="1" stop-color="#2E3192"/>
</linearGradient>
<linearGradient id="paint41_linear_24644_2973" x1="10.7915" y1="296.735" x2="23.4556" y2="299.154" gradientUnits="userSpaceOnUse">
<stop stop-color="#C0BFF6"/>
<stop offset="0.8" stop-color="#393091"/>
<stop offset="1" stop-color="#4C449F"/>
</linearGradient>
<linearGradient id="paint42_linear_24644_2973" x1="10.1043" y1="300.332" x2="22.7684" y2="302.751" gradientUnits="userSpaceOnUse">
<stop stop-color="#2E3192"/>
<stop offset="0.8" stop-color="#1B1464"/>
<stop offset="1" stop-color="#2E3192"/>
</linearGradient>
<linearGradient id="paint43_linear_24644_2973" x1="21.5423" y1="317.773" x2="31.6885" y2="314.885" gradientUnits="userSpaceOnUse">
<stop stop-color="#C0BFF6"/>
<stop offset="0.8" stop-color="#393091"/>
<stop offset="1" stop-color="#4C449F"/>
</linearGradient>
<linearGradient id="paint44_linear_24644_2973" x1="19.3682" y1="309.714" x2="31.0508" y2="308.775" gradientUnits="userSpaceOnUse">
<stop stop-color="#C0BFF6"/>
<stop offset="0.8" stop-color="#393091"/>
<stop offset="1" stop-color="#4C449F"/>
</linearGradient>
<linearGradient id="paint45_linear_24644_2973" x1="19.603" y1="312.635" x2="31.2856" y2="311.696" gradientUnits="userSpaceOnUse">
<stop stop-color="#2E3192"/>
<stop offset="0.8" stop-color="#1B1464"/>
<stop offset="1" stop-color="#2E3192"/>
</linearGradient>
<linearGradient id="paint46_linear_24644_2973" x1="18.7864" y1="299.972" x2="31.6025" y2="301.372" gradientUnits="userSpaceOnUse">
<stop stop-color="#C0BFF6"/>
<stop offset="0.8" stop-color="#393091"/>
<stop offset="1" stop-color="#4C449F"/>
</linearGradient>
<linearGradient id="paint47_linear_24644_2973" x1="18.3886" y1="303.613" x2="31.2047" y2="305.013" gradientUnits="userSpaceOnUse">
<stop stop-color="#2E3192"/>
<stop offset="0.8" stop-color="#1B1464"/>
<stop offset="1" stop-color="#2E3192"/>
</linearGradient>
<radialGradient id="paint48_radial_24644_2973" cx="0" cy="0" r="1" gradientUnits="userSpaceOnUse" gradientTransform="translate(7.38902 289.179) scale(59.6818 59.6817)">
<stop stop-color="#C0BFF6"/>
<stop offset="0.8" stop-color="#393091"/>
<stop offset="1" stop-color="#4C449F"/>
</radialGradient>
<linearGradient id="paint49_linear_24644_2973" x1="52.7036" y1="285.011" x2="60.6422" y2="275.351" gradientUnits="userSpaceOnUse">
<stop stop-color="#2E3192"/>
<stop offset="0.8" stop-color="#1B1464"/>
<stop offset="1" stop-color="#2E3192"/>
</linearGradient>
<linearGradient id="paint50_linear_24644_2973" x1="6.57923" y1="289.104" x2="32.221" y2="297.319" gradientUnits="userSpaceOnUse">
<stop stop-color="#2E3192"/>
<stop offset="0.8" stop-color="#1B1464"/>
<stop offset="1" stop-color="#2E3192"/>
</linearGradient>
<radialGradient id="paint51_radial_24644_2973" cx="0" cy="0" r="1" gradientUnits="userSpaceOnUse" gradientTransform="translate(32.8396 266.083) scale(21.6263 21.6263)">
<stop stop-color="#DCFDFF"/>
<stop offset="0.8" stop-color="#A0A0FF"/>
<stop offset="1" stop-color="#B6B7FF"/>
</radialGradient>
<radialGradient id="paint52_radial_24644_2973" cx="0" cy="0" r="1" gradientUnits="userSpaceOnUse" gradientTransform="translate(255.893 171.68) rotate(180) scale(26.9175 26.9175)">
<stop stop-color="#DCFDFF"/>
<stop offset="0.8" stop-color="#A0A0FF"/>
<stop offset="1" stop-color="#B6B7FF"/>
</radialGradient>
<radialGradient id="paint53_radial_24644_2973" cx="0" cy="0" r="1" gradientUnits="userSpaceOnUse" gradientTransform="translate(302.935 245.752) rotate(180) scale(37.6481 37.6481)">
<stop stop-color="#DCFDFF"/>
<stop offset="0.8" stop-color="#A0A0FF"/>
<stop offset="1" stop-color="#B6B7FF"/>
</radialGradient>
<radialGradient id="paint54_radial_24644_2973" cx="0" cy="0" r="1" gradientUnits="userSpaceOnUse" gradientTransform="translate(273.864 209.619) rotate(180) scale(26.3545)">
<stop stop-color="#DCFDFF"/>
<stop offset="0.8" stop-color="#A0A0FF"/>
<stop offset="1" stop-color="#B6B7FF"/>
</radialGradient>
<radialGradient id="paint55_radial_24644_2973" cx="0" cy="0" r="1" gradientUnits="userSpaceOnUse" gradientTransform="translate(299.605 248.527) rotate(180) scale(42.6245 42.6244)">
<stop stop-color="#DCFDFF"/>
<stop offset="0.8" stop-color="#A0A0FF"/>
<stop offset="1" stop-color="#B6B7FF"/>
</radialGradient>
<linearGradient id="paint56_linear_24644_2973" x1="306.265" y1="264.105" x2="253.775" y2="264.105" gradientUnits="userSpaceOnUse">
<stop stop-color="#C0BFF6"/>
<stop offset="0.5" stop-color="#393091"/>
<stop offset="1" stop-color="#A8A6E4"/>
</linearGradient>
<linearGradient id="paint57_linear_24644_2973" x1="259.365" y1="293.071" x2="248" y2="293.071" gradientUnits="userSpaceOnUse">
<stop stop-color="#6C66B7"/>
<stop offset="0.8" stop-color="#393091"/>
<stop offset="1" stop-color="#4C449F"/>
</linearGradient>
<linearGradient id="paint58_linear_24644_2973" x1="260.63" y1="284.578" x2="249.114" y2="280.432" gradientUnits="userSpaceOnUse">
<stop stop-color="#6C66B7"/>
<stop offset="0.8" stop-color="#393091"/>
<stop offset="1" stop-color="#4C449F"/>
</linearGradient>
<linearGradient id="paint59_linear_24644_2973" x1="259.011" y1="289.109" x2="249.198" y2="285.576" gradientUnits="userSpaceOnUse">
<stop stop-color="#2E3192"/>
<stop offset="0.8" stop-color="#1B1464"/>
<stop offset="1" stop-color="#2E3192"/>
</linearGradient>
<linearGradient id="paint60_linear_24644_2973" x1="304.444" y1="311.125" x2="294.117" y2="308.969" gradientUnits="userSpaceOnUse">
<stop stop-color="#C0BFF6"/>
<stop offset="0.8" stop-color="#393091"/>
<stop offset="1" stop-color="#4C449F"/>
</linearGradient>
<linearGradient id="paint61_linear_24644_2973" x1="306.061" y1="302.995" x2="294.341" y2="302.894" gradientUnits="userSpaceOnUse">
<stop stop-color="#C0BFF6"/>
<stop offset="0.8" stop-color="#393091"/>
<stop offset="1" stop-color="#4C449F"/>
</linearGradient>
<linearGradient id="paint62_linear_24644_2973" x1="306.036" y1="305.925" x2="294.316" y2="305.824" gradientUnits="userSpaceOnUse">
<stop stop-color="#2E3192"/>
<stop offset="0.8" stop-color="#1B1464"/>
<stop offset="1" stop-color="#2E3192"/>
</linearGradient>
<linearGradient id="paint63_linear_24644_2973" x1="305.911" y1="293.309" x2="293.228" y2="295.622" gradientUnits="userSpaceOnUse">
<stop stop-color="#C0BFF6"/>
<stop offset="0.8" stop-color="#393091"/>
<stop offset="1" stop-color="#4C449F"/>
</linearGradient>
<linearGradient id="paint64_linear_24644_2973" x1="306.568" y1="296.912" x2="293.885" y2="299.226" gradientUnits="userSpaceOnUse">
<stop stop-color="#2E3192"/>
<stop offset="0.8" stop-color="#1B1464"/>
<stop offset="1" stop-color="#2E3192"/>
</linearGradient>
<linearGradient id="paint65_linear_24644_2973" x1="300.166" y1="314.564" x2="289.823" y2="312.495" gradientUnits="userSpaceOnUse">
<stop stop-color="#C0BFF6"/>
<stop offset="0.8" stop-color="#393091"/>
<stop offset="1" stop-color="#4C449F"/>
</linearGradient>
<linearGradient id="paint66_linear_24644_2973" x1="301.322" y1="306.441" x2="289.601" y2="306.438" gradientUnits="userSpaceOnUse">
<stop stop-color="#C0BFF6"/>
<stop offset="0.8" stop-color="#393091"/>
<stop offset="1" stop-color="#4C449F"/>
</linearGradient>
<linearGradient id="paint67_linear_24644_2973" x1="301.321" y1="309.371" x2="289.6" y2="309.368" gradientUnits="userSpaceOnUse">
<stop stop-color="#2E3192"/>
<stop offset="0.8" stop-color="#1B1464"/>
<stop offset="1" stop-color="#2E3192"/>
</linearGradient>
<linearGradient id="paint68_linear_24644_2973" x1="301.206" y1="296.74" x2="288.542" y2="299.159" gradientUnits="userSpaceOnUse">
<stop stop-color="#C0BFF6"/>
<stop offset="0.8" stop-color="#393091"/>
<stop offset="1" stop-color="#4C449F"/>
</linearGradient>
<linearGradient id="paint69_linear_24644_2973" x1="301.893" y1="300.338" x2="289.229" y2="302.757" gradientUnits="userSpaceOnUse">
<stop stop-color="#2E3192"/>
<stop offset="0.8" stop-color="#1B1464"/>
<stop offset="1" stop-color="#2E3192"/>
</linearGradient>
<linearGradient id="paint70_linear_24644_2973" x1="290.449" y1="317.766" x2="280.303" y2="314.877" gradientUnits="userSpaceOnUse">
<stop stop-color="#C0BFF6"/>
<stop offset="0.8" stop-color="#393091"/>
<stop offset="1" stop-color="#4C449F"/>
</linearGradient>
<linearGradient id="paint71_linear_24644_2973" x1="292.644" y1="309.714" x2="280.962" y2="308.776" gradientUnits="userSpaceOnUse">
<stop stop-color="#C0BFF6"/>
<stop offset="0.8" stop-color="#393091"/>
<stop offset="1" stop-color="#4C449F"/>
</linearGradient>
<linearGradient id="paint72_linear_24644_2973" x1="292.409" y1="312.635" x2="280.727" y2="311.697" gradientUnits="userSpaceOnUse">
<stop stop-color="#2E3192"/>
<stop offset="0.8" stop-color="#1B1464"/>
<stop offset="1" stop-color="#2E3192"/>
</linearGradient>
<linearGradient id="paint73_linear_24644_2973" x1="293.224" y1="299.971" x2="280.408" y2="301.371" gradientUnits="userSpaceOnUse">
<stop stop-color="#C0BFF6"/>
<stop offset="0.8" stop-color="#393091"/>
<stop offset="1" stop-color="#4C449F"/>
</linearGradient>
<linearGradient id="paint74_linear_24644_2973" x1="293.622" y1="303.612" x2="280.806" y2="305.012" gradientUnits="userSpaceOnUse">
<stop stop-color="#2E3192"/>
<stop offset="0.8" stop-color="#1B1464"/>
<stop offset="1" stop-color="#2E3192"/>
</linearGradient>
<radialGradient id="paint75_radial_24644_2973" cx="0" cy="0" r="1" gradientUnits="userSpaceOnUse" gradientTransform="translate(304.612 289.179) rotate(180) scale(59.6818 59.6817)">
<stop stop-color="#C0BFF6"/>
<stop offset="0.8" stop-color="#393091"/>
<stop offset="1" stop-color="#4C449F"/>
</radialGradient>
<linearGradient id="paint76_linear_24644_2973" x1="259.298" y1="285.011" x2="251.359" y2="275.351" gradientUnits="userSpaceOnUse">
<stop stop-color="#2E3192"/>
<stop offset="0.8" stop-color="#1B1464"/>
<stop offset="1" stop-color="#2E3192"/>
</linearGradient>
<linearGradient id="paint77_linear_24644_2973" x1="305.422" y1="289.104" x2="279.781" y2="297.319" gradientUnits="userSpaceOnUse">
<stop stop-color="#2E3192"/>
<stop offset="0.8" stop-color="#1B1464"/>
<stop offset="1" stop-color="#2E3192"/>
</linearGradient>
<radialGradient id="paint78_radial_24644_2973" cx="0" cy="0" r="1" gradientUnits="userSpaceOnUse" gradientTransform="translate(279.162 266.083) scale(21.6263 21.6263)">
<stop stop-color="#DCFDFF"/>
<stop offset="0.8" stop-color="#A0A0FF"/>
<stop offset="1" stop-color="#B6B7FF"/>
</radialGradient>
</defs>
</svg>
